<svg id="Layer_1" data-name="Layer 1" xmlns="http://www.w3.org/2000/svg" viewBox="0 0 413.19 124.5"><title>just-da-bonus</title><path d="M42.59,148.74V69.15H78A17.8,17.8,0,0,1,95.65,86.8v4.48q0,7.75-4.41,12.19T78,108.94q8.83,0,13.24,5.33a18.76,18.76,0,0,1,4.41,12.33v4.48A17.91,17.91,0,0,1,78,148.74Zm17.66-44.19h8.87A9,9,0,0,0,78,95.68V86.8a8.39,8.39,0,0,0-2.63-6.2A8.6,8.6,0,0,0,69.12,78H60.25Zm0,35.32h8.87a8.56,8.56,0,0,0,6.24-2.61A8.41,8.41,0,0,0,78,131.08v-8.87q0-8.87-8.87-8.87H60.25Z" transform="translate(-42.59 -24.23)" fill="#f8c214"/><path d="M125.47,86.8h17.74A16.93,16.93,0,0,1,155.67,92a17.14,17.14,0,0,1,5.2,12.5v26.53a17.84,17.84,0,0,1-17.66,17.66H125.47a17.76,17.76,0,0,1-17.66-17.66V104.55A17.8,17.8,0,0,1,125.47,86.8Zm0,17.74v26.53a8.87,8.87,0,0,0,17.74,0V104.55a8.87,8.87,0,0,0-17.74,0Z" transform="translate(-42.59 -24.23)" fill="#f8c214"/><path d="M173.5,148.74V86.8h17.66v8.87q.54-4.48,2.76-6.67A8.31,8.31,0,0,1,200,86.8h8.87A16.93,16.93,0,0,1,221.36,92a17.14,17.14,0,0,1,5.2,12.5v44.19H208.91V104.55a8.87,8.87,0,0,0-17.74,0v44.19Z" transform="translate(-42.59 -24.23)" fill="#f8c214"/><path d="M292.26,86.8v61.93H274.6v-8.87q-1,8.87-8.87,8.87h-8.87a17.76,17.76,0,0,1-17.66-17.66V86.8h17.66v44.27a8.87,8.87,0,0,0,17.74,0V86.8Z" transform="translate(-42.59 -24.23)" fill="#f8c214"/><path d="M348.61,104.55h-8.79q-1.16-8.87-8.37-8.87-4.68,0-7,1.84A6.54,6.54,0,0,0,322,103q0,3.81,12.89,10.7,10.49,5.64,12.08,9.35a19.76,19.76,0,0,1,1.6,7.9,17.76,17.76,0,0,1-17.66,17.78h-8.87q-17.66,0-17.66-17.66h8.87q1,8.83,8.29,8.83,4.68,0,7-1.87a6.6,6.6,0,0,0,2.36-5.51q0-3.73-12.85-10.7-10.53-5.6-12.13-9.33a19.81,19.81,0,0,1-1.6-7.88A17.8,17.8,0,0,1,322.08,86.8h8.87Q347.53,86.8,348.61,104.55Z" transform="translate(-42.59 -24.23)" fill="#f8c214"/><rect x="322.04" y="38.67" width="38.97" height="4.86" fill="#f8c214"/><path d="M140.32,24.23V64.1q0,5.66-2.86,8.51T129,75.47H117.53q-5.66,0-8.51-2.86t-2.86-8.51V52.68h11.37V64.1a5.4,5.4,0,0,0,1.69,4,5.69,5.69,0,0,0,8,0,5.42,5.42,0,0,0,1.68-4V24.23Z" transform="translate(-42.59 -24.23)" fill="#414142"/><path d="M183.39,35.6V75.47H172V69.76q-.67,5.71-5.71,5.71H160.6A11.44,11.44,0,0,1,149.23,64.1V35.6H160.6V64.1a5.71,5.71,0,0,0,11.42,0V35.6Z" transform="translate(-42.59 -24.23)" fill="#414142"/><path d="M220.49,47h-5.66q-.75-5.71-5.39-5.71a7.29,7.29,0,0,0-4.54,1.19A4.21,4.21,0,0,0,203.38,46q0,2.45,8.3,6.89,6.75,3.63,7.78,6a12.74,12.74,0,0,1,1,5.08,11.44,11.44,0,0,1-11.37,11.45h-5.71Q192,75.47,192,64.1h5.71q.67,5.68,5.34,5.68a7.23,7.23,0,0,0,4.54-1.2A4.25,4.25,0,0,0,209.14,65q0-2.4-8.27-6.89-6.78-3.6-7.81-6a12.75,12.75,0,0,1-1-5.07A11.46,11.46,0,0,1,203.41,35.6h5.71Q219.79,35.6,220.49,47Z" transform="translate(-42.59 -24.23)" fill="#414142"/><path d="M231.33,24.23H242.7V35.6h5.71v5.71H242.7V64.1a5.07,5.07,0,0,0,1.81,4.2,5.55,5.55,0,0,0,3.36,1.45h.53v5.71H242.7A11.41,11.41,0,0,1,231.33,64.1V41.31h-5.71V35.6h5.71Z" transform="translate(-42.59 -24.23)" fill="#414142"/><path d="M278.54,75.47V24.23h22.79A11.46,11.46,0,0,1,312.7,35.6V64.1a11.48,11.48,0,0,1-11.37,11.37Zm11.37-5.71h5.71a5.72,5.72,0,0,0,5.71-5.66V35.6a5.4,5.4,0,0,0-1.69-4,5.53,5.53,0,0,0-4-1.67h-5.71Z" transform="translate(-42.59 -24.23)" fill="#414142"/><path d="M345.15,52.68V47a5.76,5.76,0,0,0-5.71-5.71h-5.71q-5,0-5.66,5.71h-5.71q1.31-11.42,11.37-11.42h11.42a10.9,10.9,0,0,1,8,3.38,11,11,0,0,1,3.35,8V75.47H345.15V69.76q-.67,5.71-5.71,5.71h-5.71A11.43,11.43,0,0,1,322.36,64.1v-.05a11.46,11.46,0,0,1,11.37-11.37Zm0,5.71h-5.71a5.52,5.52,0,0,0-4,1.67,5.42,5.42,0,0,0-1.68,4v.05a5.71,5.71,0,0,0,11.42,0Z" transform="translate(-42.59 -24.23)" fill="#414142"/><path d="M423.39,148.74h-48A10.76,10.76,0,0,1,364.63,138V67.76h40.29l34.36,51.18A19.14,19.14,0,0,1,423.39,148.74Z" transform="translate(-42.59 -24.23)" fill="#414142"/><circle cx="361" cy="81.01" r="26.49" fill="#414142"/><circle cx="361" cy="55.75" r="12.22" fill="#414142"/><path d="M403.59,36.11a12.11,12.11,0,0,0-7.38,2.54,12.15,12.15,0,0,0-24.18-.2,12.12,12.12,0,0,0-7.15-2.35l-.26,0V62.9h39V60.55a12.22,12.22,0,0,0,0-24.44Z" transform="translate(-42.59 -24.23)" fill="#414142"/><path d="M397.17,112.26h-.91a1.05,1.05,0,0,0,1.05-1.05v-3.1a1.05,1.05,0,0,0-1.05-1.05H380.13a1.05,1.05,0,0,0-1.05,1.05v3.1a1.06,1.06,0,0,0,1.05,1.05H381a1.05,1.05,0,0,0-1.05,1.05v3.1a1.05,1.05,0,0,0,1.05,1.05h-3.45a1.06,1.06,0,0,0-1.05,1.05v3.1a1.05,1.05,0,0,0,1.05,1.05h2.91a1.05,1.05,0,0,0-1.05,1.05v3.1a1.05,1.05,0,0,0,1.05,1.05h-1.09a1.05,1.05,0,0,0-1.05,1.05v3.1a1.05,1.05,0,0,0,1.05,1.05h.73a1.05,1.05,0,0,0-1.05,1.05v3.1a1.05,1.05,0,0,0,1.05,1.05H375.5a1.05,1.05,0,0,0-1.05,1.05v3.1a1.05,1.05,0,0,0,1.05,1.05h4.63a1.05,1.05,0,0,0-1.05,1.05v3.1a1.06,1.06,0,0,0,1.05,1.05h16.13a1.05,1.05,0,0,0,1.05-1.05v-3.1a1.05,1.05,0,0,0-1.05-1.05h-4.63a1.06,1.06,0,0,0,1.05-1.05v-3.1a1.05,1.05,0,0,0-1.05-1.05h4.63a1.05,1.05,0,0,0,1.05-1.05v-3.1a1.05,1.05,0,0,0-1.05-1.05h-.73a1.05,1.05,0,0,0,1.05-1.05V129a1.05,1.05,0,0,0-1.05-1.05h1.09a1.05,1.05,0,0,0,1.05-1.05v-3.1a1.06,1.06,0,0,0-1.05-1.05h-2.91a1.05,1.05,0,0,0,1.05-1.05v-3.1a1.05,1.05,0,0,0-1.05-1.05h3.45a1.05,1.05,0,0,0,1.05-1.05v-3.1A1.05,1.05,0,0,0,397.17,112.26Z" transform="translate(-42.59 -24.23)" fill="#f8c214"/><path d="M419.31,122.69h-.91a1.05,1.05,0,0,0,1.05-1.05v-3.1a1.05,1.05,0,0,0-1.05-1.05H402.28a1.05,1.05,0,0,0-1.05,1.05v3.1a1.05,1.05,0,0,0,1.05,1.05h.91a1.05,1.05,0,0,0-1.05,1.05v3.1a1.05,1.05,0,0,0,1.05,1.05h-3.45a1.05,1.05,0,0,0-1.05,1.05v3.1a1.05,1.05,0,0,0,1.05,1.05h2.91a1.05,1.05,0,0,0-1.05,1.05v3.1a1.05,1.05,0,0,0,1.05,1.05h-1.09a1.05,1.05,0,0,0-1.05,1.05v3.1a1.06,1.06,0,0,0,1.05,1.05h.73a1.05,1.05,0,0,0-1.05,1.05v3.1a1.05,1.05,0,0,0,1.05,1.05H418.4a1.05,1.05,0,0,0,1.05-1.05v-3.1a1.05,1.05,0,0,0-1.05-1.05h-.73a1.05,1.05,0,0,0,1.05-1.05v-3.1a1.05,1.05,0,0,0-1.05-1.05h1.09a1.05,1.05,0,0,0,1.05-1.05v-3.1a1.05,1.05,0,0,0-1.05-1.05h-2.91a1.05,1.05,0,0,0,1.05-1.05V129a1.05,1.05,0,0,0-1.05-1.05h3.45a1.05,1.05,0,0,0,1.05-1.05v-3.1A1.06,1.06,0,0,0,419.31,122.69Z" transform="translate(-42.59 -24.23)" fill="#f8c214"/><path d="M455.47,144.74l-11.4-11.4a1.05,1.05,0,0,0-1.49,0l-2.19,2.19a1.05,1.05,0,0,0,0,1.49l1.29,1.29H426.34a1.05,1.05,0,0,0-1.05,1.05v3.1a1.05,1.05,0,0,0,1.05,1.05h-3.45a1.05,1.05,0,0,0-1.05,1.05v3.1a1.05,1.05,0,0,0,1.05,1.05H439a1.05,1.05,0,0,0,1.05-1.05v-3.1a1.05,1.05,0,0,0-1.05-1.05h3.45a1.05,1.05,0,0,0,1.05-1.05v-2.31l8.26,8.26a1.05,1.05,0,0,0,1.49,0l2.19-2.19A1.05,1.05,0,0,0,455.47,144.74Z" transform="translate(-42.59 -24.23)" fill="#f8c214"/></svg>